# xmcd CD database file
#
# Track frame offsets:
#	150
#	45961
#	86864
#	110009
#	146843
#	176650
#	206908
#
# Disc length: 3141 seconds
#
# Revision: 0
# Processed by: cddbd v1.5.1PL0 Copyright (c) Steve Scherf et al.
# Submitted via: CDex 1.50
#
DISCID=660c4307
DTITLE=Angelight - Intimland vol.3 Проникновение
DYEAR=1900
DGENRE=New Age
TTITLE0=Пробуждение
TTITLE1=Больше, чем любовь
TTITLE2=Океан безмолвия
TTITLE3=Проникновение
TTITLE4=Ты здесь
TTITLE5=В ожидании дождя
TTITLE6=Песня любви
EXTD=
EXTT0=
EXTT1=
EXTT2=
EXTT3=
EXTT4=
EXTT5=
EXTT6=
PLAYORDER=
